<svg width="146" height="23" viewBox="0 0 146 23" fill="none" xmlns="http://www.w3.org/2000/svg">
<path d="M0.124268 22.3373C0.874268 21.3373 1.24927 19.9988 1.24927 18.3165V4.31649C1.24927 2.62378 0.874268 1.27482 0.124268 0.274821V0.108154H6.99927V0.274821C6.25969 1.27482 5.8951 2.62378 5.8951 4.31649V21.7123H9.0826C10.5097 21.7123 11.6972 21.4988 12.6451 21.0665C13.6034 20.6238 14.3795 20.0144 14.9784 19.2332C15.5878 18.4571 16.1659 17.4519 16.7076 16.2123H17.0201L16.2284 22.504H0.124268V22.3373Z" fill="#222222"/>
<path d="M19.7361 22.3373C20.9444 21.3269 21.8819 19.9936 22.5486 18.3373L29.7361 0.108154H32.3611L39.4861 18.254C39.8611 19.1707 40.2257 19.9363 40.5903 20.5457C40.9496 21.1446 41.408 21.7436 41.9653 22.3373V22.504H34.0278V22.3373C34.5798 21.6446 34.8611 20.8582 34.8611 19.9832C34.8611 19.3582 34.7413 18.7696 34.5069 18.2123L33.2361 15.0248H24.8403L23.6736 18.004C23.434 18.5457 23.3194 19.1082 23.3194 19.6915C23.3194 20.7332 23.6996 21.6186 24.4653 22.3373V22.504H19.7361V22.3373ZM29.0278 4.21232L25.1319 14.2123H32.9444L29.0278 4.21232Z" fill="#222222"/>
<path d="M65.0062 22.754C63.6573 22.754 62.5687 22.4415 61.7354 21.8165C60.9125 21.1915 60.2875 20.4519 59.8604 19.5873C59.4281 18.7123 58.9906 17.6082 58.5479 16.2748C58.225 15.3165 57.9437 14.5561 57.6937 13.9832C57.4541 13.4154 57.1312 12.9519 56.7146 12.5873C56.3083 12.2123 55.8031 12.0248 55.1937 12.0248H53.2771V18.3165C53.2771 19.9988 53.6416 21.3373 54.3812 22.3373V22.504H47.5062V22.3373C48.2562 21.3373 48.6312 19.9988 48.6312 18.3165V4.31649C48.6312 2.62378 48.2562 1.27482 47.5062 0.274821V0.108154H56.6521C59.0791 0.108154 61.1156 0.582113 62.7562 1.52482C64.4073 2.47274 65.2354 3.97274 65.2354 6.02482C65.2354 7.20711 64.9229 8.21232 64.2979 9.04565C63.6833 9.87899 62.8864 10.5196 61.9021 10.9623C60.9281 11.3946 59.9073 11.6394 58.8396 11.6915V11.8165C59.9073 11.8582 60.8083 12.1602 61.5479 12.7123C62.2823 13.2696 62.8656 13.9415 63.2979 14.7332C63.725 15.5248 64.1521 16.4779 64.5687 17.5873C65.0271 18.879 65.4489 19.8582 65.8396 20.5248C66.2406 21.1811 66.7354 21.504 67.3187 21.504C67.6937 21.504 68.0114 21.379 68.2771 21.129L68.5271 21.3582C68.2458 21.8061 67.7823 22.1498 67.1312 22.3998C66.475 22.6342 65.7666 22.754 65.0062 22.754ZM56.0479 11.2123C57.4333 11.2123 58.5114 10.754 59.2771 9.83732C60.0531 8.91024 60.4437 7.6394 60.4437 6.02482C60.4437 4.43107 60.0479 3.17065 59.2562 2.25399C58.4646 1.33732 57.35 0.878988 55.9229 0.878988C54.9646 0.878988 54.0791 1.04045 53.2771 1.35815V11.2123H56.0479Z" fill="#222222"/>
<path d="M71.3383 22.3373C72.5466 21.3269 73.4841 19.9936 74.1508 18.3373L81.3383 0.108154H83.9633L91.0883 18.254C91.4633 19.1707 91.8278 19.9363 92.1924 20.5457C92.5518 21.1446 93.0101 21.7436 93.5674 22.3373V22.504H85.6299V22.3373C86.182 21.6446 86.4633 20.8582 86.4633 19.9832C86.4633 19.3582 86.3435 18.7696 86.1091 18.2123L84.8383 15.0248H76.4424L75.2758 18.004C75.0362 18.5457 74.9216 19.1082 74.9216 19.6915C74.9216 20.7332 75.3018 21.6186 76.0674 22.3373V22.504H71.3383V22.3373ZM80.6299 4.21232L76.7341 14.2123H84.5466L80.6299 4.21232Z" fill="#222222"/>
<path d="M98.5459 22.3165C99.098 21.6811 99.5251 21.0404 99.8167 20.3998C100.119 19.7644 100.275 19.0665 100.275 18.3165V4.27482C100.275 3.52482 100.119 2.83211 99.8167 2.19149C99.5251 1.55607 99.098 0.915446 98.5459 0.274821V0.108154H104.233L115.879 15.5873V4.31649C115.879 3.56649 115.723 2.87378 115.421 2.23315C115.129 1.59774 114.702 0.957113 114.15 0.316488V0.108154H118.567V0.316488C118.009 0.957113 117.577 1.59774 117.275 2.23315C116.983 2.87378 116.838 3.56649 116.838 4.31649V22.504H115.65L101.233 3.56649V18.3165C101.233 19.0665 101.379 19.7644 101.671 20.3998C101.973 21.0404 102.405 21.6811 102.963 22.3165V22.504H98.5459V22.3165Z" fill="#222222"/>
<path d="M123.068 22.3373C124.277 21.3269 125.214 19.9936 125.881 18.3373L133.068 0.108154H135.693L142.818 18.254C143.193 19.1707 143.558 19.9363 143.923 20.5457C144.282 21.1446 144.74 21.7436 145.298 22.3373V22.504H137.36V22.3373C137.912 21.6446 138.193 20.8582 138.193 19.9832C138.193 19.3582 138.074 18.7696 137.839 18.2123L136.568 15.0248H128.173L127.006 18.004C126.766 18.5457 126.652 19.1082 126.652 19.6915C126.652 20.7332 127.032 21.6186 127.798 22.3373V22.504H123.068V22.3373ZM132.36 4.21232L128.464 14.2123H136.277L132.36 4.21232Z" fill="#222222"/>
</svg>
